<svg xmlns="http://www.w3.org/2000/svg" version="1.1" width="32px" height="32px" style="shape-rendering:geometricPrecision; text-rendering:geometricPrecision; image-rendering:optimizeQuality; fill-rule:evenodd; clip-rule:evenodd" xmlns:xlink="http://www.w3.org/1999/xlink">
<g><path style="opacity:0.844" fill="#542c71" d="M 9.5,-0.5 C 12.1667,-0.5 14.8333,-0.5 17.5,-0.5C 17.4133,6.54016 17.9133,13.5402 19,20.5C 21.2931,22.4899 23.6264,24.4899 26,26.5C 26.4935,28.1341 26.6602,29.8008 26.5,31.5C 24.1667,31.5 21.8333,31.5 19.5,31.5C 18.8333,30.1667 18.1667,30.1667 17.5,31.5C 14.5,31.5 11.5,31.5 8.5,31.5C 8.52659,24.8202 8.85992,18.1536 9.5,11.5C 9.28955,8.31692 8.62289,5.31692 7.5,2.5C 8.40128,1.70951 9.06795,0.709515 9.5,-0.5 Z M 15.5,24.5 C 14.8333,24.5 14.5,24.8333 14.5,25.5C 12.9519,25.1788 12.2852,24.1788 12.5,22.5C 14.1788,22.2852 15.1788,22.9519 15.5,24.5 Z M 15.5,24.5 C 16.3382,24.8417 16.6716,25.5084 16.5,26.5C 15.5084,26.6716 14.8417,26.3382 14.5,25.5C 15.1667,25.5 15.5,25.1667 15.5,24.5 Z"/></g>
<g><path style="opacity:0.008" fill="#a28037" d="M 6.5,0.5 C 7.83333,1.16667 7.83333,1.16667 6.5,0.5 Z"/></g>
<g><path style="opacity:0.922" fill="#8a5087" d="M 27.5,-0.5 C 28.1667,-0.5 28.8333,-0.5 29.5,-0.5C 29.8417,0.338246 30.5084,0.67158 31.5,0.5C 31.5,3.16667 31.5,5.83333 31.5,8.5C 30.8333,8.5 30.5,8.83333 30.5,9.5C 29.391,9.55688 28.391,9.89022 27.5,10.5C 27.5,6.83333 27.5,3.16667 27.5,-0.5 Z"/></g>
<g><path style="opacity:0.996" fill="#844e7c" d="M 6.5,2.5 C 6.83333,2.5 7.16667,2.5 7.5,2.5C 8.62289,5.31692 9.28955,8.31692 9.5,11.5C 8.85992,18.1536 8.52659,24.8202 8.5,31.5C 7.83333,31.5 7.16667,31.5 6.5,31.5C 6.5,26.5 6.5,21.5 6.5,16.5C 7.83333,16.1667 7.83333,15.8333 6.5,15.5C 6.5,15.1667 6.5,14.8333 6.5,14.5C 6.5,10.5 6.5,6.5 6.5,2.5 Z"/></g>
<g><path style="opacity:0.792" fill="#c1904f" d="M 19.5,-0.5 C 19.8333,-0.5 20.1667,-0.5 20.5,-0.5C 20.335,2.8499 20.5017,6.18323 21,9.5C 22.7141,10.9255 24.0475,10.5922 25,8.5C 25.3629,5.45603 25.8629,2.45603 26.5,-0.5C 26.8333,-0.5 27.1667,-0.5 27.5,-0.5C 27.5,3.16667 27.5,6.83333 27.5,10.5C 26.5084,10.3284 25.8417,10.6618 25.5,11.5C 24.9718,15.0131 23.1385,16.0131 20,14.5C 19.5007,9.51108 19.3341,4.51108 19.5,-0.5 Z"/></g>
<g><path style="opacity:0.999" fill="#d7b120" d="M 20.5,-0.5 C 22.5,-0.5 24.5,-0.5 26.5,-0.5C 25.8629,2.45603 25.3629,5.45603 25,8.5C 24.0475,10.5922 22.7141,10.9255 21,9.5C 20.5017,6.18323 20.335,2.8499 20.5,-0.5 Z"/></g>
<g><path style="opacity:0.008" fill="#734088" d="M 30.5,9.5 C 30.8333,9.5 31.1667,9.5 31.5,9.5C 31.5,9.83333 31.5,10.1667 31.5,10.5C 31.1667,10.1667 30.8333,9.83333 30.5,9.5 Z"/></g>
<g><path style="opacity:0.987" fill="#d5ae2a" d="M 0.5,-0.5 C 1.83333,-0.5 3.16667,-0.5 4.5,-0.5C 4.83333,0.5 5.5,1.16667 6.5,1.5C 6.5,1.83333 6.5,2.16667 6.5,2.5C 6.5,6.5 6.5,10.5 6.5,14.5C 5.16667,14.8333 5.16667,15.1667 6.5,15.5C 6.5,15.8333 6.5,16.1667 6.5,16.5C 6.5,21.5 6.5,26.5 6.5,31.5C 4.5,31.5 2.5,31.5 0.5,31.5C 0.5,30.8333 0.166667,30.5 -0.5,30.5C -0.5,25.5 -0.5,20.5 -0.5,15.5C 0.682751,14.4955 2.01608,13.6622 3.5,13C 2.01608,12.3378 0.682751,11.5045 -0.5,10.5C -0.5,7.16667 -0.5,3.83333 -0.5,0.5C 0.166667,0.5 0.5,0.166667 0.5,-0.5 Z"/></g>
<g><path style="opacity:0.008" fill="#90568a" d="M 31.5,18.5 C 31.5,18.8333 31.5,19.1667 31.5,19.5C 30.8299,19.0187 30.8299,18.6853 31.5,18.5 Z"/></g>
<g><path style="opacity:0.767" fill="#8f5588" d="M 17.5,-0.5 C 18.1667,-0.5 18.8333,-0.5 19.5,-0.5C 19.3341,4.51108 19.5007,9.51108 20,14.5C 23.1385,16.0131 24.9718,15.0131 25.5,11.5C 27.6208,11.3253 29.6208,11.6586 31.5,12.5C 31.5,13.8333 31.5,15.1667 31.5,16.5C 30.3172,17.5045 28.9839,18.3378 27.5,19C 28.448,19.4828 29.448,19.6495 30.5,19.5C 30.5,20.1667 30.8333,20.5 31.5,20.5C 31.5,23.8333 31.5,27.1667 31.5,30.5C 30.8333,30.5 30.5,30.8333 30.5,31.5C 29.1667,31.5 27.8333,31.5 26.5,31.5C 26.6602,29.8008 26.4935,28.1341 26,26.5C 23.6264,24.4899 21.2931,22.4899 19,20.5C 17.9133,13.5402 17.4133,6.54016 17.5,-0.5 Z"/></g>
</svg>
