<?xml version="1.0" encoding="UTF-8" standalone="no" ?>
<svg xmlns="http://www.w3.org/2000/svg" xmlns:xlink="http://www.w3.org/1999/xlink" version="1.1" width="40" height="51" xml:space="preserve">
<defs>
</defs>
<g transform="matrix(1 0 0 1 19.66 12.95)"  >
<path style="stroke: none; stroke-width: 1; stroke-dasharray: none; stroke-linecap: butt; stroke-dashoffset: 0; stroke-linejoin: miter; stroke-miterlimit: 4; fill: rgb(242,183,5); fill-rule: nonzero; opacity: 1;"  transform=" translate(-147.42, -88.8)" d="M 129.07 97.88 Q 128.54 98.23 128.52 97.59 Q 128.48 95.16 128.51 93.24 Q 128.54 90.89 129.18 88.98 Q 133.12 77.37 145.25 75.75 Q 150.43 75.06 155.26 77.41 Q 159.87 79.66 162.73 83.74 Q 166.52 89.14 166.24 96.51 Q 166.16 98.62 164.25 99.53 Q 156.29 103.29 149.52 98.69 Q 145.17 95.72 144.52 95.46 Q 137.19 92.55 129.07 97.88 Z" stroke-linecap="round" />
</g>
<g transform="matrix(1 0 0 1 19.92 25.54)"  >
<path style="stroke: none; stroke-width: 1; stroke-dasharray: none; stroke-linecap: butt; stroke-dashoffset: 0; stroke-linejoin: miter; stroke-miterlimit: 4; fill: rgb(84,203,200); fill-rule: nonzero; opacity: 1;"  transform=" translate(-147.68, -101.39)" d="M 166.83 100.95 Q 168.52 102.11 166.8 103.07 Q 165.95 103.55 165.85 103.61 Q 159.22 107.79 152.51 104.89 Q 152.47 104.87 147.36 101.61 Q 139.57 96.63 131.09 101.77 Q 130.21 102.31 129.75 102.52 Q 126.7 103.89 128.41 101.17 Q 128.78 100.57 129.4 100.15 Q 137.21 94.8 145.56 98.26 Q 146.14 98.5 150.48 101.35 Q 157.66 106.04 166.12 100.93 C 166.34 100.8 166.62 100.8 166.83 100.95 Z" stroke-linecap="round" />
</g>
<g transform="matrix(1 0 0 1 12.52 38.22)"  >
<rect style="stroke: none; stroke-width: 1; stroke-dasharray: none; stroke-linecap: butt; stroke-dashoffset: 0; stroke-linejoin: miter; stroke-miterlimit: 4; fill: rgb(84,203,200); fill-rule: nonzero; opacity: 1;"  x="-1.22" y="-12.43" rx="1.06" ry="1.06" width="2.44" height="24.86" />
</g>
<g transform="matrix(1 0.01 -0.01 1 7.91 32.68)"  >
<rect style="stroke: none; stroke-width: 1; stroke-dasharray: none; stroke-linecap: butt; stroke-dashoffset: 0; stroke-linejoin: miter; stroke-miterlimit: 4; fill: rgb(84,203,200); fill-rule: nonzero; opacity: 1;"  x="-1.15" y="-6.71" rx="1.1" ry="1.1" width="2.3" height="13.42" />
</g>
<g transform="matrix(1 0 0 1 17.23 32.79)"  >
<rect style="stroke: none; stroke-width: 1; stroke-dasharray: none; stroke-linecap: butt; stroke-dashoffset: 0; stroke-linejoin: miter; stroke-miterlimit: 4; fill: rgb(84,203,200); fill-rule: nonzero; opacity: 1;"  x="-1.23" y="-5.12" rx="1.18" ry="1.18" width="2.46" height="10.24" />
</g>
<g transform="matrix(1 0 0 1 3.24 33.47)"  >
<rect style="stroke: none; stroke-width: 1; stroke-dasharray: none; stroke-linecap: butt; stroke-dashoffset: 0; stroke-linejoin: miter; stroke-miterlimit: 4; fill: rgb(84,203,200); fill-rule: nonzero; opacity: 1;"  x="-1.22" y="-5.19" rx="1.17" ry="1.17" width="2.44" height="10.38" />
</g>
<g transform="matrix(1 0.04 -0.04 1 21.87 32.54)"  >
<rect style="stroke: none; stroke-width: 1; stroke-dasharray: none; stroke-linecap: butt; stroke-dashoffset: 0; stroke-linejoin: miter; stroke-miterlimit: 4; fill: rgb(84,203,200); fill-rule: nonzero; opacity: 1;"  x="-1.14" y="-2.11" rx="1.05" ry="1.05" width="2.28" height="4.22" />
</g>
<g transform="matrix(1 0 0 1 35.75 34.71)"  >
<rect style="stroke: none; stroke-width: 1; stroke-dasharray: none; stroke-linecap: butt; stroke-dashoffset: 0; stroke-linejoin: miter; stroke-miterlimit: 4; fill: rgb(84,203,200); fill-rule: nonzero; opacity: 1;"  x="-1.25" y="-3.2" rx="1.02" ry="1.02" width="2.5" height="6.4" />
</g>
<g transform="matrix(1 0 0 1 26.4 39.02)"  >
<rect style="stroke: none; stroke-width: 1; stroke-dasharray: none; stroke-linecap: butt; stroke-dashoffset: 0; stroke-linejoin: miter; stroke-miterlimit: 4; fill: rgb(84,203,200); fill-rule: nonzero; opacity: 1;"  x="-1.15" y="-6.83" rx="1.05" ry="1.05" width="2.3" height="13.66" />
</g>
<g transform="matrix(1 0 0 1 31.12 38.63)"  >
<rect style="stroke: none; stroke-width: 1; stroke-dasharray: none; stroke-linecap: butt; stroke-dashoffset: 0; stroke-linejoin: miter; stroke-miterlimit: 4; fill: rgb(84,203,200); fill-rule: nonzero; opacity: 1;"  x="-1.12" y="-5.99" rx="1.09" ry="1.09" width="2.24" height="11.98" />
</g>
</svg>