<svg xmlns:rdf="http://www.w3.org/1999/02/22-rdf-syntax-ns#" xmlns="http://www.w3.org/2000/svg" xmlns:cc="http://creativecommons.org/ns#" xmlns:dc="http://purl.org/dc/elements/1.1/" height="100" width="100" version="1.1" viewBox="0 0 100 100">
    <g transform="translate(.006 -.003)">
        <path fill="#f7931a" d="M98.489 62.1C91.811 88.886 64.681 105.187 37.892 98.508 11.114 91.83 -5.188 64.698 1.494 37.914 8.169 11.125 35.298 -5.178 62.08 1.5 88.867 8.178 105.167 35.313 98.489 62.1z"/>
        <path fill="#FFF" d="M72.036 42.881c0.995 -6.653 -4.07 -10.23 -10.997 -12.616l2.247 -9.012 -5.486 -1.367 -2.188 8.775c-1.442 -0.359 -2.923 -0.698 -4.395 -1.034l2.203 -8.833 -5.483 -1.367 -2.248 9.009c-1.194 -0.272 -2.366 -0.541 -3.503 -0.823l0.006 -0.028 -7.566 -1.889 -1.459 5.859s4.07 0.933 3.984 0.991c2.222 0.555 2.623 2.025 2.556 3.191l-2.559 10.267c0.153 0.039 0.352 0.095 0.57 0.183l-0.58 -0.144 -3.587 14.383c-0.272 0.675 -0.961 1.688 -2.514 1.303 0.055 0.08 -3.988 -0.995 -3.988 -0.995l-2.723 6.28 7.139 1.78c1.328 0.333 2.63 0.681 3.911 1.009l-2.27 9.116 5.48 1.367 2.248 -9.019c1.497 0.406 2.95 0.781 4.372 1.134l-2.241 8.977 5.486 1.367 2.27 -9.098c9.355 1.77 16.389 1.056 19.35 -7.405 2.386 -6.813 -0.119 -10.742 -5.041 -13.305 3.584 -0.827 6.284 -3.184 7.005 -8.055zm-12.534 17.577c-1.695 6.813 -13.166 3.13 -16.884 2.206l3.012 -12.077c3.719 0.928 15.644 2.766 13.872 9.87zm1.697 -17.675c-1.547 6.197 -11.094 3.048 -14.191 2.277l2.731 -10.953c3.097 0.772 13.07 2.212 11.459 8.677z"/>
    </g>
</svg>
